/* XPM */
static char * close_inactive_xpm[] = {
"24 24 112 2",
"  	c None",
". 	c #000000",
"+ 	c #6D7077",
"@ 	c #4D4F52",
"# 	c #4C4E51",
"$ 	c #4D4E52",
"% 	c #4D4E51",
"& 	c #4C4E52",
"* 	c #4C4F51",
"= 	c #4B4E50",
"- 	c #4B4C4F",
"; 	c #323435",
"> 	c #060606",
", 	c #010101",
"' 	c #323335",
") 	c #4B4D50",
"! 	c #4C4F52",
"~ 	c #393A3D",
"{ 	c #020202",
"] 	c #1D1D1D",
"^ 	c #2C2C2C",
"/ 	c #353535",
"( 	c #383838",
"_ 	c #3A3A3D",
": 	c #4C4E50",
"< 	c #111112",
"[ 	c #191919",
"} 	c #444444",
"| 	c #4C4C4C",
"1 	c #525252",
"2 	c #575757",
"3 	c #4B4E51",
"4 	c #4C4D51",
"5 	c #4B4D51",
"6 	c #202020",
"7 	c #3D3D3D",
"8 	c #585858",
"9 	c #4C4D50",
"0 	c #383A3C",
"a 	c #4A4C4E",
"b 	c #535353",
"c 	c #595959",
"d 	c #4A4C4F",
"e 	c #4A4D4F",
"f 	c #4B4D4F",
"g 	c #4A4D50",
"h 	c #4A4B4D",
"i 	c #454545",
"j 	c #4D4D4D",
"k 	c #505050",
"l 	c #303234",
"m 	c #515151",
"n 	c #4B4B4B",
"o 	c #282828",
"p 	c #292929",
"q 	c #4A4A4A",
"r 	c #303233",
"s 	c #494C4E",
"t 	c #494B4E",
"u 	c #424242",
"v 	c #5B5B5B",
"w 	c #414141",
"x 	c #252525",
"y 	c #404040",
"z 	c #5A5A5A",
"A 	c #4A4B4E",
"B 	c #494B4D",
"C 	c #3F3F3F",
"D 	c #484B4D",
"E 	c #303132",
"F 	c #494A4D",
"G 	c #484A4D",
"H 	c #474A4B",
"I 	c #1C1C1C",
"J 	c #474747",
"K 	c #4F4F4F",
"L 	c #464646",
"M 	c #48494B",
"N 	c #484B4C",
"O 	c #484A4C",
"P 	c #47484B",
"Q 	c #343434",
"R 	c #565656",
"S 	c #474A4D",
"T 	c #47494C",
"U 	c #353738",
"V 	c #363739",
"W 	c #474A4C",
"X 	c #47494B",
"Y 	c #48494C",
"Z 	c #101011",
"` 	c #5C5C5C",
" .	c #46494B",
"..	c #45474A",
"+.	c #545454",
"@.	c #5E5E5E",
"#.	c #46474A",
"$.	c #46484B",
"%.	c #46494A",
"&.	c #47494A",
"*.	c #343737",
"=.	c #343738",
"-.	c #46484A",
";.	c #47484A",
">.	c #454749",
",.	c #2E2F30",
"'.	c #050506",
").	c #2E2F31",
"!.	c #45484A",
"~.	c #464749",
"{.	c #464849",
"].	c #454849",
". . . . . . . . . . . . . . . . . . . . . . . . ",
"+ + + + + + + + + + + + + + + + + + + + + + + + ",
"@ @ @ @ @ @ @ @ @ @ @ @ @ @ @ @ @ @ @ @ @ @ @ @ ",
"# $ % & @ * $ = - ; > , > ' - ) @ * $ ! # * @ & ",
"# # # # % # ~ { ] ^ / ( / ^ ] { _ # # * # * # # ",
"# : : # ) < [ / } | 1 2 1 | } / [ < ) # 3 : ) 4 ",
"5 : 5 5 < 6 7 1 8 8 8 8 8 8 8 1 7 6 < : = = ) = ",
"9 ) ) 0 [ 7 2 8 8 8 8 8 8 8 8 8 2 7 [ 0 9 ) = ) ",
") ) a { / b c 8 8 8 8 8 8 8 8 8 c b / { d e f g ",
"d d h ] i c 8 8 1 | 8 8 8 j k 8 8 c i ] h d - - ",
"d a l ^ m c 8 8 n o | 8 j p q 8 8 c m ^ r d d d ",
"s t > / 8 8 8 8 8 n o u p q 8 8 8 8 8 / > a t a ",
"s a , ( v 8 8 8 8 8 w x y 8 8 8 8 8 z ( , A t t ",
"B B > / c 8 8 8 8 j p C o | 8 8 8 8 8 / > t t t ",
"D B E ^ 1 c 8 8 j p q 8 | o | 8 8 c 1 ^ E B F F ",
"D G H I J v 8 8 k n 8 8 8 | K 8 8 v L ] M G N G ",
"O O P { Q R z 8 8 8 8 8 8 8 8 8 v 1 / { P O S G ",
"O T T U [ C z v 8 8 8 8 8 8 8 v z 7 [ V W H O W ",
"X H Y T Z 6 7 1 ` z c 8 c z ` 1 7 6 Z X X X T X ",
" .X P P ..Z [ Q L +.` @.` +.L / [ Z #.X X  .X X ",
"$.%.$.X  .&.*.{ ] ^ / ( / ^ ] { =.&.%.-.;.$.%.$.",
"-.$.-. .-.$.-.>.>.,.'., '.).>.!.-.$.-.-.-.-.-.;.",
"..-.-.-.!.#.-.!.!.#.~.!...-.-.-.!.#.-.!.!.#.~.!.",
"..{.>.>.~.].~.!...!.>.>...{.>.>.~.].~.!...!.>.>."};
